# xmcd CD database file
#
# Track frame offsets:
#	150
#	4520
#	28352
#	57212
#	81027
#	100980
#	134622
#	157242
#	180252
#	208842
#	230955
#	252327
#	257487
#	276482
#	302160
#
# Disc length: 4367 seconds
#
# Revision: 0
# Processed by: cddbd v1.5.1PL0 Copyright (c) Steve Scherf et al.
# Submitted via: CDex 1.51
#
DISCID=d9110d0f
DTITLE=MANIGANCE - Memoires...Live
DYEAR=2004
DGENRE=Heavy Metal
TTITLE0=Mirage
TTITLE1=Empire Virtuel
TTITLE2=Mourir En Heros
TTITLE3=Comme Une Ombre
TTITLE4=Momoires
TTITLE5=Maudit
TTITLE6=Integrite
TTITLE7=D'un Autre Sang
TTITLE8=La Mort Dans L'ame
TTITLE9=L'ultime Seconde
TTITLE10=Heritier
TTITLE11=Solo De Batterie (Drums Solo)
TTITLE12=Des Mon Retour
TTITLE13=En Mon Nom
TTITLE14=Ange Ou Demon
EXTD=YEAR: 2004
EXTT0=
EXTT1=
EXTT2=
EXTT3=
EXTT4=
EXTT5=
EXTT6=
EXTT7=
EXTT8=
EXTT9=
EXTT10=
EXTT11=
EXTT12=
EXTT13=
EXTT14=
PLAYORDER=
